<?xml version="1.0" encoding="utf-8"?>
<!-- Generator: Adobe Illustrator 28.1.0, SVG Export Plug-In . SVG Version: 6.00 Build 0)  -->
<svg version="1.1" id="ie_logo" xmlns="http://www.w3.org/2000/svg" xmlns:xlink="http://www.w3.org/1999/xlink" x="0px" y="0px"
	 viewBox="0 0 708.9 235.8" style="enable-background:new 0 0 708.9 235.8;" xml:space="preserve">
<style type="text/css">
	.st0{fill:#FFFFFF;}
</style>
<path class="st0" d="M85.4,30.4c-11.8,0-20.1,5.4-24.5,9.5v-7.8H45v81.6h16.5V57.6C66.3,51.7,74.1,46,84.9,46c6.8,0,13,3.1,16.8,8
	c2.9,3.6,4.9,8.5,4.9,18.9v32.6c0,4.5,3.7,8.2,8.2,8.2h8.3V73.8c0-14.1-2.8-22.4-8-29C108.1,35.9,97.4,30.4,85.4,30.4 M177.6,99.8
	c-4.3,0-9-1.6-11.3-4.3c-2.1-2.4-2.4-6.1-2.4-10.4V46.9h22V32.1h-22V0l-16.5,7.3v24.8h-17.5v14.8h17.5v37.3c0,8.9,1.7,16.3,6.6,21.7
	c5.2,5.9,12.8,9.5,23.1,9.5c4.7,0,9.7-0.7,12.8-1.7l-3.3-14.9C184.2,99.4,180,99.8,177.6,99.8 M211.4,62.5
	c2.8-10.6,12.3-17.7,22.9-17.7c9.7,0,19.1,7.3,21.5,17.7H211.4z M233.7,30.4c-23.1,0-39.7,18-39.7,42.5c0,24.5,18.4,42.5,42.2,42.5
	c16.7,0,28.3-7.5,34.4-15.3l-10.8-10.2c-4.7,5.2-11.3,11.1-23.4,11.1c-14.2,0-25.5-10.9-26.4-24.6h62.8c0.2-1.6,0.2-2.8,0.2-3.5
	C273,48.8,256.5,30.4,233.7,30.4 M303.9,41.5v-9.4h-16v81.6h16.5v-54c4.5-7.8,13.5-13.7,22-13.7c2.6,0,4.5,0.2,6.4,0.7l1.9-15.8
	c-1.9-0.3-4.7-0.5-6.4-0.5C316.4,30.4,307.9,35.9,303.9,41.5 M386.3,30.4c-11.8,0-20.1,5.4-24.5,9.5v-7.8h-16v81.6h16.5V57.6
	C367.2,51.7,375,46,385.8,46c6.8,0,13,3.1,16.8,8c3,3.6,4.9,8.5,4.9,18.9v32.6c0,4.5,3.7,8.2,8.2,8.2h8.3V73.8c0-14.1-2.8-22.4-8-29
	C409,35.9,398.3,30.4,386.3,30.4 M454.8,62.5c2.8-10.6,12.3-17.7,22.9-17.7c9.7,0,19.1,7.3,21.5,17.7H454.8z M477.2,30.4
	c-23.1,0-39.7,18-39.7,42.5c0,24.5,18.4,42.5,42.2,42.5c16.7,0,28.3-7.5,34.4-15.3l-10.8-10.2c-4.7,5.2-11.3,11.1-23.4,11.1
	c-14.2,0-25.5-10.9-26.4-24.6h62.8c0.2-1.6,0.2-2.8,0.2-3.5C516.4,48.8,499.9,30.4,477.2,30.4 M569.2,98.8c-4.3,0-9-1.6-11.3-4.3
	c-2.1-2.4-2.4-6.1-2.4-10.4V46.9h22V32.1h-22V0L539,7.3v24.8h-17.5v14.8H539v36.3c0,8.9,1.7,16.3,6.6,21.7
	c5.2,5.9,12.8,9.5,23.1,9.5c3,0,6.1-0.3,8.8-0.8V98C575,98.5,571.4,98.8,569.2,98.8 M7.2,113.7h16.5V32.1H7.2V113.7z M16,196.7
	c0.9,13.7,12.1,24.6,26.4,24.6c12.1,0,18.7-5.9,23.4-11.1l10.8,10.2c-6.1,7.8-17.7,15.3-34.4,15.3c-23.8,0-42.2-18-42.2-42.5
	s16.7-42.5,39.7-42.5c22.7,0,39.2,18.4,39.2,42.5c0,0.7,0,1.9-0.2,3.5H16z M17.4,182.8h44.4c-2.4-10.4-11.8-17.7-21.5-17.7
	C29.7,165.1,20.1,172.3,17.4,182.8 M86.3,224.5c9,7.3,20,11.3,33,11.3c16,0,30.4-9.5,30.4-25c0-16.8-16.8-22.6-29.7-25.9
	c-8.2-2.1-14.6-4-14.6-9.5c0-6.4,6.8-10.2,14.7-10.2c6.6,0,12.5,2.6,17.5,6.4l8.5-11.8c-6.4-5.2-15.1-9-27.1-9
	c-14.6,0-30.2,8-30.2,25.5c0,11.5,8.8,17.7,18.7,21c12,4,25.5,4.5,25.5,13.9c0,6.4-7.1,10.2-14.2,10.2c-8.2,0-16.5-3.1-24.1-9
	L86.3,224.5z M157.5,224.5c9,7.3,20,11.3,33,11.3c16,0,30.4-9.5,30.4-25c0-16.8-16.8-22.6-29.7-25.9c-8.2-2.1-14.6-4-14.6-9.5
	c0-6.4,6.8-10.2,14.7-10.2c6.6,0,12.5,2.6,17.5,6.4l8.5-11.8c-6.4-5.2-15.1-9-27.1-9c-14.6,0-30.2,8-30.2,25.5
	c0,11.5,8.8,17.7,18.7,21c12,4,25.5,4.5,25.5,13.9c0,6.4-7.1,10.2-14.2,10.2c-8.2,0-16.5-3.1-24.1-9L157.5,224.5z M245.5,196.7
	c0.9,13.7,12.1,24.6,26.4,24.6c12.1,0,18.7-5.9,23.4-11.1l10.8,10.2c-6.1,7.8-17.7,15.3-34.4,15.3c-23.8,0-42.2-18-42.2-42.5
	s16.7-42.5,39.7-42.5c22.7,0,39.2,18.4,39.2,42.5c0,0.7,0,1.9-0.2,3.5H245.5z M246.9,182.8h44.4c-2.4-10.4-11.8-17.7-21.5-17.7
	C259.2,165.1,249.7,172.3,246.9,182.8 M339.4,152.5h-16V234h16.5V178c4.9-5.9,12.7-11.6,23.4-11.6c6.8,0,13,3.1,16.8,8
	c2.9,3.6,4.9,8.5,4.9,18.9v32.6c0,4.5,3.7,8.2,8.2,8.2h8.3v-39.9c0-14.1-2.8-22.4-8-29c-6.9-8.8-17.7-14.4-29.7-14.4
	c-11.8,0-20.1,5.4-24.5,9.5V152.5z M481.6,234h16.5v-81.6h-16.5V234z M579,226.6c-6.6,5.9-15.4,9.2-25.2,9.2
	c-7.3,0-14.9-2.1-20.5-5.4c-12.3-7.3-20.8-20.8-20.8-37.1c0-16.3,8.7-30,21-37.3c5.6-3.3,12.3-5.2,20-5.2c9.2,0,18,2.8,25.5,9.2
	v-7.5h16V234h-16V226.6z M578.4,178c-5-6.6-13.4-11.6-23.3-11.6c-15.8,0-26.2,12.7-26.2,26.9c0,14.6,11.3,26.9,27.1,26.9
	c8.3,0,16.8-4.2,22.4-11.6V178z M615.5,234H632V122.1l-16.5,0V234z M645.6,224.5c9,7.3,20,11.3,33,11.3c16,0,30.4-9.5,30.4-25
	c0-16.8-16.8-22.6-29.7-25.9c-8.2-2.1-14.6-4-14.6-9.5c0-6.4,6.8-10.2,14.7-10.2c6.6,0,12.5,2.6,17.5,6.4l8.5-11.8
	c-6.4-5.2-15.1-9-27.1-9c-14.6,0-30.2,8-30.2,25.5c0,11.5,8.8,17.7,18.7,21c12,4,25.5,4.5,25.5,13.9c0,6.4-7.1,10.2-14.2,10.2
	c-8.2,0-16.5-3.1-24.1-9L645.6,224.5z M456.9,220.1c-4.3,0-9-1.6-11.3-4.3c-2.1-2.4-2.4-6.1-2.4-10.4v-38.2h22v-14.8h-22v-32.1
	l-16.5,7.3v24.8h-17.5v14.8h17.5v37.3c0,8.9,1.7,16.3,6.6,21.7c5.2,5.9,12.8,9.5,23.1,9.5c4.7,0,9.7-0.7,12.8-1.7l-3.3-14.9
	C463.5,219.8,459.3,220.1,456.9,220.1"/>
</svg>
