<svg width="230" height="56" viewBox="0 0 230 56" fill="none" xmlns="http://www.w3.org/2000/svg">
<path d="M44.4718 56.0015H11.5051C5.16256 56.0015 0 50.8389 0 44.4718V11.5051C0 5.16256 5.16256 0 11.5051 0H44.4718C50.8389 0 55.9769 5.16256 55.9769 11.5051V44.4718C56.0015 50.8389 50.8389 56.0015 44.4718 56.0015Z" fill="#0E214B"/>
<path d="M34.9873 23.3949L35.0857 23.4687C37.4457 15.6511 38.2078 12.2094 36.1182 10.0952H33.1436V10.169C36.4623 11.3244 37.2244 14.6678 34.9873 23.3949Z" fill="#8EC089"/>
<path fill-rule="evenodd" clip-rule="evenodd" d="M44.3744 10.0952C41.2277 11.9144 39.3593 15.3069 35.4014 23.6654L35.4997 23.7391C40.0477 15.2824 42.629 11.9144 48.5044 10.169V10.0952H44.3744Z" fill="#2474DE"/>
<path d="M35.1816 23.5424L35.28 23.6162C39.0167 14.8398 39.9754 12.4552 41.5242 10.169V10.0952H38.5004V10.1935C38.82 13.6844 37.5908 16.9049 35.1816 23.5424Z" fill="#E85F24"/>
<path fill-rule="evenodd" clip-rule="evenodd" d="M10.3027 10.095H7.62305V10.1687C10.0814 11.1275 11.2614 12.9713 12.2448 17.2734C12.2448 17.3226 18.8332 47.4621 18.8332 47.4621H20.3328L13.6952 17.0275C12.5398 11.8158 11.3352 10.8571 10.3027 10.095Z" fill="#76C5F7"/>
<path fill-rule="evenodd" clip-rule="evenodd" d="M24.3378 45.3481L25.3212 43.3077L19.7653 17.249C18.7819 13.1927 19.0032 11.349 19.4211 10.0952H17.2577C17.2331 11.7423 17.3069 13.0944 18.0936 16.5607L24.3378 45.3481Z" fill="#2474DE"/>
<path d="M15.2946 10.0952H12.7871V10.169C13.918 11.5211 14.2375 13.1682 15.1226 16.782L21.8093 47.4869H23.3089L16.6222 16.659C15.6634 12.7257 15.5159 11.6194 15.2946 10.0952Z" fill="#318EEE"/>
<path d="M26.3341 41.2181L27.342 39.153L22.8678 17.7161C22.032 13.5615 22.4007 11.3981 23.7774 10.169V10.0952H21.3928C20.6553 11.644 20.4341 13.1927 21.2699 17.3228L26.3341 41.2181Z" fill="#E85F24"/>
<path d="M24.4412 17.8786C23.2366 12.1506 25.3999 10.6264 26.4079 10.1348H29.9479V10.2085C26.1129 10.946 25.0066 13.0356 25.9408 17.8786L29.3333 35.038L28.3254 37.1276L24.4412 17.8786Z" fill="#8EC089"/>
<path fill-rule="evenodd" clip-rule="evenodd" d="M173.76 17.4033C177.374 17.895 179.808 20.5746 179.316 25.86C178.112 38.8402 166.852 52.1153 150.185 51.7466L149.668 51.722L149.718 51.6237C166.041 51.6728 176.268 37.9552 177.374 25.7863C177.817 21.0171 175.629 18.5833 172.433 18.1408C167.713 17.477 162.009 20.3533 158.568 25.2209L158.445 25.393L158.396 25.3192C162.034 19.8125 168.45 16.6658 173.76 17.4033ZM207.268 17.2312C218.331 17.8704 221.526 25.9584 221.453 30.3834C221.256 42.2573 212.013 50.5912 196.205 51.6974L195.714 51.722L195.738 51.6483C210.464 50.5174 219.535 41.0036 219.732 29.228C219.806 25.1963 217.052 18.2883 207.489 17.3541L207.194 17.3295L207.268 17.2312ZM148.808 4.34939C150.455 6.51274 148.415 10.9132 147.259 13.8632L147.21 13.9862L138.09 37.6848C137.475 39.2581 136.762 41.0281 136.59 42.9457C136.197 47.3953 140.105 51.2303 147.825 51.6237L148.071 51.6483L148.046 51.722C139.073 51.4516 134.771 47.0265 135.189 42.1344C135.361 40.2169 135.951 38.6681 136.516 37.1931L136.59 36.9964L145.661 13.4699C145.76 13.1749 145.858 12.9045 145.981 12.6095L146.079 12.3145C146.128 12.167 146.178 12.0441 146.251 11.8966L146.35 11.6261C147.333 9.02027 148.144 6.61108 146.792 4.98856L146.718 4.91481V4.79189L148.808 4.34939ZM205.645 17.1329L205.621 17.2066C191.854 18.3129 181.824 27.9251 181.603 39.6269C181.529 43.6586 184.356 50.7141 193.87 51.5253L194.165 51.5499L194.14 51.6237C183.053 50.9845 179.857 42.8227 179.931 38.3977C180.128 26.4746 190.231 18.0916 205.645 17.1329ZM171.056 19.0012C173.982 19.4191 175.85 21.5579 175.457 25.7617C174.4 37.0702 164.32 51.132 150.209 51.5008H149.791L149.816 51.427C162.698 50.6403 172.63 36.2097 173.613 25.7125C173.957 22.025 172.261 20.1075 169.753 19.7633C166.115 19.2716 161.641 21.6317 158.789 25.4913L158.666 25.6388L158.617 25.565C161.714 21.0171 166.852 18.4112 171.056 19.0012ZM207.17 17.4279C215.675 18.1162 218.281 24.2375 218.232 27.9742C218.036 39.4302 209.308 50.2962 196.254 51.4762L195.861 51.5008L195.886 51.427C207.661 50.2224 216.413 38.1764 216.61 26.7942C216.659 23.4509 214.225 18.3375 207.342 17.5262L207.145 17.5016L207.17 17.4279ZM153.11 3.46438C154.511 5.35731 151.979 10.9624 151.045 13.347L150.996 13.4453L141.113 38.9877C140.499 40.4873 139.614 42.749 139.442 44.6665C139.122 48.3049 142.244 51.0583 147.972 51.427H148.144L148.12 51.5008C141.187 51.2303 137.672 47.9115 138.016 43.8307C138.188 41.9131 138.925 40.0202 139.54 38.496L139.614 38.2994L149.177 13.4945C150.209 10.9378 152.299 6.36524 150.922 4.15272L150.848 4.05438V3.93147L153.11 3.46438ZM205.547 17.3541L205.522 17.4279C194.091 18.6325 185.044 30.8997 184.848 42.0606C184.798 45.404 186.839 50.5912 194.042 51.3533L194.263 51.3778L194.239 51.4516C185.733 50.8862 183.102 44.5682 183.176 40.8315C183.348 29.3509 192.739 18.3129 205.547 17.3541ZM157.535 2.55478C158.248 4.64439 155.323 11.3803 154.733 12.9291L154.708 12.9782L144.162 40.2415C143.547 41.8148 142.564 44.3961 142.392 46.3136C142.22 48.3295 143.228 49.7553 145.268 50.4928C146.596 50.9845 147.776 51.1566 148.218 51.2057H148.267L148.243 51.2795C143.277 50.9353 140.622 48.6982 140.917 45.4286C141.064 43.634 141.974 41.2986 142.613 39.7252L142.687 39.5531L152.987 12.9045C153.676 11.1345 156.454 4.91481 155.446 3.16937L155.396 3.09562V2.9727L157.535 2.55478ZM207.071 17.6491C213.02 18.3129 214.987 22.5413 214.938 25.565C214.741 36.6031 206.53 49.9274 196.254 51.2549L195.935 51.2795L195.984 51.2057C204.957 50.0012 213.119 35.3247 213.315 24.385C213.365 21.73 211.742 18.485 207.194 17.7229L207.022 17.6983L207.071 17.6491ZM168.45 20.6237C170.565 20.9187 171.99 22.5658 171.695 25.688C170.835 35.0789 162.108 49.5341 150.283 51.2057L149.914 51.2549L149.939 51.1812C160.805 48.8949 168.967 34.1693 169.778 25.565C170.024 23.0329 168.893 21.6317 167.074 21.3858C164.542 21.0417 161.321 22.7871 158.986 25.7617L158.863 25.9092L158.814 25.8355C161.247 22.3446 165.23 20.1812 168.45 20.6237ZM70.8534 7.79109C70.878 7.81568 70.9026 7.81568 70.9271 7.84026L71.0009 7.88943C72.1563 8.74985 73.4593 10.0036 74.6884 15.6333L74.7376 15.8299L82.3585 51.1812H80.6377C80.6377 51.1812 73.0905 16.1495 73.0659 16.1004C71.9842 11.159 70.6076 9.02027 67.8788 7.88943L67.7559 7.84026V7.76651L70.8534 7.79109ZM76.5814 7.79109C76.606 7.98776 76.6305 8.15985 76.6551 8.35652L76.6797 8.50402C76.8764 9.95445 77.1468 11.4049 78.0318 15.2153L78.081 15.412L85.8002 51.2057H84.0794L76.3847 15.5349C75.3768 11.4049 75.008 9.48736 73.7788 7.93859L73.7051 7.86484V7.79109H76.5814ZM205.449 17.5508L205.4 17.6245C196.746 18.8291 188.24 33.776 188.044 44.4453C187.994 47.1003 189.617 50.4682 194.165 51.1074L194.312 51.132L194.263 51.2057C188.388 50.7141 186.347 46.2399 186.396 43.1915C186.642 32.3255 195.296 18.6325 205.449 17.5508ZM109.228 22.4429C110.187 22.4429 110.753 22.9838 110.802 24.0163C110.851 24.9259 110.236 26.7942 109.499 28.7117L109.376 29.0313L109.228 29.4001C108.663 30.8259 108.073 32.2272 107.655 33.2597L107.581 33.4072L100.477 51.1812H98.7066L105.885 33.2843C106.844 30.9489 109.228 25.5405 109.155 24.09C109.13 23.4017 108.761 23.1313 108.221 23.1313C106.942 23.1313 104.705 26.3271 103.255 29.5722L103.181 29.7197H103.083C104.558 26.0075 106.991 22.4429 109.228 22.4429ZM111.121 21.14C112.891 21.14 113.899 22.2463 113.998 23.8196C114.121 26.1796 112.178 30.6539 111.023 33.481L110.949 33.6285L104.041 51.1812H102.271L109.327 33.481C110.335 30.8014 112.473 26.0075 112.375 23.8688C112.301 22.5658 111.515 21.8037 110.163 21.8037C107.09 21.8037 104.533 25.6634 103.009 29.5476L102.96 29.6951H102.861C104.287 25.2946 107.286 21.14 111.121 21.14ZM114.932 18.4604C118.349 18.4604 120.217 20.6483 120.365 23.4754C120.537 26.6959 119.406 29.818 118.177 32.9401L117.98 33.4072L117.833 33.7514L117.685 34.0956L111.146 51.1812H109.376L116.038 33.9726C117.292 30.6047 118.865 26.9171 118.693 23.5492C118.57 21.0171 116.899 19.1487 113.899 19.1487C107.63 19.1487 104.041 24.0654 102.443 29.5476L102.394 29.7197H102.32C103.795 23.7459 107.876 18.4604 114.932 18.4604ZM113.039 19.7633C115.62 19.7633 117.071 21.4104 117.194 23.5984C117.341 26.6221 115.669 30.4818 114.465 33.6039L114.391 33.8006L107.655 51.1566H105.811L112.67 33.7268C113.875 30.703 115.694 26.3763 115.546 23.7213C115.448 21.8038 114.219 20.4271 112.031 20.4271C107.458 20.4271 104.287 24.8275 102.714 29.523L102.665 29.6705H102.591C104.09 24.5817 107.483 19.7633 113.039 19.7633ZM133.443 17.1574C135.705 17.1574 137.549 18.6079 137.696 21.7546C138.04 28.1955 132.239 33.4564 125.872 34.4889L125.675 34.5135L125.626 34.4397C131.083 33.2105 136.492 28.2692 136.172 22.4429C136.025 19.6896 134.402 18.3866 132.411 18.3866C128.748 18.3866 125.552 21.4842 123.561 25.5896C123.536 25.7863 123.536 26.0075 123.512 26.2288C125.331 22.4429 128.158 19.5421 131.329 19.5421C133.099 19.5421 134.451 20.6975 134.574 23.1067C134.845 28.1217 130.149 33.0139 125.626 34.2431L125.478 34.2676L125.404 34.1939C129.141 32.8172 133.271 28.1463 133.05 23.7704C132.952 21.7792 131.796 20.7467 130.297 20.7467C127.543 20.7467 125.085 23.5246 123.389 27.0401C123.339 27.3105 123.315 27.5563 123.266 27.8267C124.765 24.5571 126.953 21.9267 129.215 21.9267C130.567 21.9267 131.452 22.8117 131.526 24.4588C131.722 28.1217 128.428 32.5714 125.38 34.0218L125.282 34.071L125.208 33.9972C127.445 32.5468 130.149 28.1709 130.002 25.1471C129.928 23.9179 129.289 23.1558 128.207 23.1558C126.388 23.1558 124.47 25.7371 123.069 28.7609C122.946 29.2526 122.823 29.7197 122.651 30.2113C123.954 27.1876 125.699 24.3359 127.076 24.3359C127.961 24.3359 128.33 24.9505 128.379 25.8355C128.502 28.0726 126.732 32.2764 125.134 33.776L125.06 33.8497L124.987 33.776C126.388 31.2684 127.027 28.3184 126.904 26.5484C126.855 26.0813 126.683 25.5405 126.068 25.5405C125.331 25.5405 124.028 27.7038 122.848 30.0393L122.725 30.3097L122.602 30.5801C122.553 30.6784 122.504 30.7522 122.479 30.8505L122.405 30.9734C122.086 31.9076 121.717 32.8664 121.348 33.8743L121.201 34.2676L114.784 51.132H113.014L119.48 34.1201C120.856 30.4818 122.184 27.3351 121.987 23.2788C121.815 20.1812 119.726 17.7966 115.915 17.7966C108.024 17.7966 103.894 23.3034 102.32 29.4738L102.271 29.6705H102.198C103.648 23.0083 108.048 17.1329 116.899 17.1329C121.127 17.1329 123.438 19.8125 123.634 23.2296C123.659 23.7704 123.659 24.2867 123.659 24.7784C125.773 20.4025 129.338 17.1574 133.443 17.1574ZM162.009 1.64519C162.599 2.28436 158.519 12.2653 158.174 13.1749V13.1995L147.186 41.569C146.645 43.0194 145.416 46.2153 145.243 47.9853C145.096 49.8045 146.448 50.6895 148.243 51.0337L148.341 51.0583L148.292 51.132C145.612 50.7141 143.596 49.4603 143.793 47.174C143.94 45.3794 144.973 42.6507 145.588 41.0281L145.637 40.8806L156.38 13.052C156.65 12.2899 157.461 10.3478 158.199 8.2336L158.322 7.86484C159.059 5.75065 159.723 3.56271 159.723 2.30895V2.11228L162.009 1.64519ZM206.973 17.8704C210.415 18.4358 211.742 20.845 211.693 23.1804C211.496 33.8006 203.826 49.6816 196.279 51.0583L196.058 51.0828L196.107 51.0091C202.228 49.8782 209.849 32.4976 210.046 22.025C210.07 20.0829 209.259 18.6325 207.096 18.0179L206.973 17.9933V17.8704ZM165.746 22.2217C167.172 22.4183 168.032 23.5738 167.86 25.5159C167.172 33.0385 159.035 48.2803 150.308 50.9353L150.037 51.0091L150.086 50.9107C157.732 47.592 165.377 32.1535 165.992 25.4913C166.115 24.0409 165.451 23.1313 164.443 23.0083C162.919 22.7871 160.78 24.1146 159.158 26.0321L159.059 26.1551L159.01 26.0813C160.928 23.5492 163.632 21.9267 165.746 22.2217ZM205.35 17.772L205.301 17.8458C199.377 19.0504 191.461 36.7506 191.289 46.8299C191.264 48.7966 191.977 50.4191 194.312 50.8862L194.435 50.9107L194.386 50.9845C190.797 50.5912 189.617 47.9361 189.666 45.6007C189.863 35.2264 198 18.8537 205.35 17.772ZM166.631 0.735596L150.209 42.8965C149.595 44.4698 148.193 47.6903 148.046 49.4849C147.997 50.1732 148.218 50.6895 148.439 50.837L148.464 50.8616L148.415 50.9845C148.267 50.9353 148.169 50.8862 148.046 50.837C147.284 50.4682 146.694 49.5341 146.718 48.772C146.792 47.0265 148.046 43.9044 148.661 42.3556L148.71 42.2327L159.895 13.2978C159.994 13.0028 161.247 9.90528 162.403 6.90608L162.526 6.56191C163.509 3.98063 164.419 1.57144 164.394 1.22727V1.20268L166.631 0.735596ZM81.3014 7.79109C80.8589 9.24153 80.5885 11.3557 81.6702 15.9037L81.7194 16.1249L88.1111 46.3874L86.9802 48.772L79.8018 15.3383C79.0643 12.0932 78.8677 10.4215 78.8185 8.89735V7.81568L81.3014 7.79109ZM86.3165 7.79109V7.86484C84.7431 9.26611 84.3252 11.7491 85.2348 16.4445L85.284 16.6412L90.422 41.5444L89.2665 43.9536L83.4648 16.1741C82.506 11.4786 82.7519 9.63486 83.5631 7.86484L83.5877 7.79109H86.3165ZM93.4212 7.79109V7.86484C89.0207 8.70069 87.7423 11.159 88.824 16.7641L92.7082 36.7014L91.5528 39.1352L87.1032 16.8133C85.7265 10.2986 88.0865 8.45485 89.2911 7.84026L89.3649 7.81568L93.4212 7.79109ZM114.686 7.79109V7.86484C108.024 9.8807 105.025 13.7403 99.9112 23.3279L99.7637 23.6229L99.6408 23.5492C104.14 13.937 106.303 9.97903 109.843 7.84026L109.941 7.76651C109.941 7.79109 114.686 7.79109 114.686 7.79109ZM106.696 7.79109V7.86484C106.131 8.70069 105.639 9.56111 105.074 10.692L104.975 10.9132C103.82 13.2487 102.394 16.6904 99.6408 23.2542L99.5425 23.5L99.4196 23.4263C102.148 15.8053 103.55 12.0686 103.23 8.06151V7.81568C103.205 7.79109 106.696 7.79109 106.696 7.79109ZM100.501 7.79109C102.886 10.2003 102.05 14.1828 99.395 23.0575L99.3212 23.3279L99.1983 23.2542C101.73 13.2241 100.919 9.29069 97.207 7.91401L97.0841 7.86484V7.79109H100.501Z" fill="white"/>
<path d="M229.867 17.2771H229.137C229.004 17.2771 228.938 17.2771 228.871 17.4098L227.677 20.527L226.415 17.4098C226.349 17.2771 226.283 17.2771 226.15 17.2771H225.42C225.353 17.2771 225.287 17.3435 225.287 17.4098V21.1244C225.287 21.1908 225.353 21.2572 225.42 21.2572H225.818C225.884 21.2572 225.951 21.1908 225.951 21.1244V17.8745L227.278 21.1244C227.345 21.2572 227.411 21.2572 227.544 21.2572H227.809C227.942 21.2572 228.009 21.2572 228.075 21.1244L229.336 17.8745V21.1244C229.336 21.1908 229.402 21.2572 229.469 21.2572H229.867C229.933 21.2572 230 21.1908 230 21.1244V17.4098C230 17.3435 229.933 17.2771 229.867 17.2771Z" fill="white"/>
<path d="M224.427 17.2773H221.376C221.31 17.2773 221.243 17.3437 221.243 17.4101V17.742C221.243 17.8084 221.31 17.8748 221.376 17.8748H222.571V21.1252C222.571 21.1915 222.637 21.2579 222.704 21.2579H223.168C223.235 21.2579 223.301 21.1915 223.301 21.1252V17.8748H224.43C224.496 17.8748 224.562 17.8084 224.562 17.742V17.4101C224.562 17.3437 224.496 17.2773 224.43 17.2773H224.427Z" fill="white"/>
</svg>
