<svg xmlns="http://www.w3.org/2000/svg" width="42.031" height="39" viewBox="0 0 42.031 39">
  <defs>
    <style>
      .cls-1 {
        fill: #ff5176;
        fill-rule: evenodd;
      }
    </style>
  </defs>
  <path id="check_mark" data-name="check mark" class="cls-1" d="M813.251,5959a19.079,19.079,0,0,1-11.161-3.61,19.485,19.485,0,0,1-7.027-9.5,19.75,19.75,0,0,1-.288-11.87,19.517,19.517,0,0,1,6.557-9.84,19.031,19.031,0,0,1,22.289-1.1,0.878,0.878,0,0,1,.416.56,0.889,0.889,0,0,1-.114.69,0.833,0.833,0,0,1-.572.39,0.854,0.854,0,0,1-.674-0.15,17.31,17.31,0,0,0-21.364,1.98,17.767,17.767,0,0,0-5.331,10.14,17.951,17.951,0,0,0,1.928,11.33,17.54,17.54,0,0,0,8.375,7.74,17.3,17.3,0,0,0,11.3.92,17.5,17.5,0,0,0,9.479-6.31,17.891,17.891,0,0,0,3.672-10.87v-1.78a0.879,0.879,0,1,1,1.749-.17v1.95a19.647,19.647,0,0,1-5.635,13.79,19.133,19.133,0,0,1-13.6,5.71h0Zm2.623-15.51a0.887,0.887,0,0,1-.612-0.27l-7.87-7.98a0.9,0.9,0,0,1,0-1.26,0.882,0.882,0,0,1,1.241,0l7.241,7.29,18.626-18.79a0.865,0.865,0,0,1,1.241,0,0.9,0.9,0,0,1,0,1.26l-19.238,19.5a0.915,0.915,0,0,1-.629.25h0Z" transform="translate(-794 -5920)"/>
</svg>
