<svg xmlns="http://www.w3.org/2000/svg" xmlns:xlink="http://www.w3.org/1999/xlink" width="229px" height="20.8px" viewBox="0 0 229 22" version="1.1">
    <title>thirty-mile-zone</title>
    <g id="Page-1" stroke="none" stroke-width="1" fill="none" fill-rule="evenodd">
        <g id="thirty-mile-zone" fill="#FFFFFF" fill-rule="nonzero">
            <path d="M5.643,18.7851999 L5.611,16.4181999 L5.611,3.38619989 L5.611,3.32319989 L5.611,3.23319989 C5.611,3.03019989 5.6,2.84319989 5.579,2.67319989 C5.558,2.50419989 5.461,2.34319989 5.29,2.19019989 C5.119,2.03719989 4.916,1.94019989 4.681,1.89719989 C4.446,1.85519989 4.179,1.83319989 3.879,1.83319989 L0.706,1.78319989 C0.492,1.80019989 0.321,1.73219989 0.192,1.57919989 C0.064,1.42619989 1.42108547e-14,1.26519989 1.42108547e-14,1.09619989 C0.021,0.926199889 0.112,0.794199889 0.272,0.701199889 C0.433,0.608199889 0.62,0.561199889 0.833,0.561199889 L15.839,0.485199889 C15.86,0.502199889 15.876,0.510199889 15.887,0.510199889 L15.935,0.510199889 C16.148,0.527199889 16.341,0.608199889 16.512,0.752199889 C16.683,0.896199889 16.769,1.05319989 16.769,1.22319989 C16.769,1.39219989 16.694,1.53319989 16.544,1.64219989 C16.394,1.75319989 16.213,1.80819989 15.999,1.80819989 L12.761,1.80819989 C12.483,1.82519989 12.232,1.84619989 12.007,1.87119989 C11.783,1.89719989 11.575,1.97819989 11.382,2.11419989 C11.168,2.26619989 11.045,2.43119989 11.014,2.61019989 C10.981,2.78819989 10.965,2.98819989 10.965,3.20819989 L10.965,3.25919989 L10.965,3.31019989 L10.997,5.70219989 L11.094,18.7341999 C11.094,19.3281999 10.848,19.8411999 10.356,20.2741999 C9.864,20.7071999 9.245,20.9311999 8.497,20.9481999 C7.727,20.9651999 7.059,20.7621999 6.493,20.3381999 C5.926,19.9141999 5.643,19.4041999 5.643,18.8101999 L5.643,18.7851999 Z" id="Fill-1"/>
            <path d="M17.8655,18.4540999 L17.8655,15.9340999 L17.8655,2.90309989 C17.8865,2.27509989 18.1485,1.73209989 18.6515,1.27409989 C19.1535,0.815099889 19.7995,0.578099889 20.5905,0.561099889 L20.6385,0.561099889 L20.6865,0.561099889 C21.4135,0.561099889 22.0765,0.748099889 22.6755,1.12109989 C23.2735,1.49509989 23.5725,1.98609989 23.5725,2.59709989 L23.6365,7.89109989 L23.6365,7.98009989 L23.6365,8.04409989 C23.6365,8.24709989 23.6475,8.43409989 23.6685,8.60409989 C23.6895,8.77409989 23.7755,8.92709989 23.9255,9.06209989 C24.0325,9.18109989 24.1555,9.28709989 24.2945,9.38009989 C24.4325,9.47409989 24.5985,9.52009989 24.7915,9.52009989 L28.4145,9.46909989 C28.6495,9.48609989 28.8575,9.45309989 29.0395,9.36809989 C29.2205,9.28309989 29.3865,9.18109989 29.5365,9.06209989 C29.7285,8.89209989 29.8355,8.70609989 29.8575,8.50209989 C29.8785,8.29809989 29.8885,8.07809989 29.8885,7.84009989 L29.8885,7.72609989 L29.8885,7.58609989 L29.8575,1.88509989 L29.8575,1.77009989 L29.8575,1.63009989 C29.8785,1.35909989 29.9535,1.11309989 30.0815,0.892099889 C30.2095,0.671099889 30.4335,0.561099889 30.7545,0.561099889 C31.0535,0.561099889 31.2675,0.671099889 31.3955,0.892099889 C31.5245,1.11309989 31.6095,1.35909989 31.6525,1.63009989 L31.6525,1.77009989 L31.6525,1.91009989 L31.6845,6.61909989 L31.6845,19.6500999 L31.6845,19.8280999 L31.6845,20.0070999 C31.6415,20.2960999 31.5615,20.5540999 31.4445,20.7830999 C31.3265,21.0120999 31.1285,21.1270999 30.8505,21.1270999 L30.8035,21.1270999 L30.7545,21.1270999 C30.4555,21.1090999 30.2625,20.9860999 30.1775,20.7580999 C30.0925,20.5280999 30.0495,20.2780999 30.0495,20.0070999 L30.0495,19.8920999 L30.0495,19.7520999 L30.0495,19.7140999 L30.0495,19.6760999 L30.0815,12.0400999 C30.0815,11.8200999 30.0435,11.6240999 29.9695,11.4540999 C29.8935,11.2850999 29.7615,11.1240999 29.5685,10.9710999 C29.4185,10.8690999 29.2525,10.7800999 29.0715,10.7040999 C28.8895,10.6270999 28.6915,10.5890999 28.4785,10.5890999 L24.8875,10.6150999 C24.7595,10.6320999 24.6515,10.6570999 24.5665,10.6910999 C24.4805,10.7250999 24.3955,10.7670999 24.3105,10.8180999 C24.2665,10.8520999 24.2295,10.8780999 24.1985,10.8940999 C24.1655,10.9120999 24.1285,10.9370999 24.0855,10.9710999 C23.8935,11.1070999 23.7645,11.2550999 23.7005,11.4160999 C23.6365,11.5780999 23.6045,11.7770999 23.6045,12.0150999 L23.5725,18.5050999 C23.5725,19.1830999 23.3375,19.7690999 22.8675,20.2620999 C22.3965,20.7540999 21.7665,21.0240999 20.9755,21.0760999 L20.8795,21.0760999 L20.8155,21.0760999 L20.7515,21.0760999 C19.8955,21.0930999 19.2065,20.8380999 18.6825,20.3120999 C18.1585,19.7860999 17.8975,19.1760999 17.8975,18.4790999 L17.8655,18.4540999 Z" id="Fill-3"/>
            <path d="M34.4219,18.7597999 L34.4219,15.4247999 L34.4219,2.39379989 C34.4429,1.71579989 34.7429,1.14279989 35.3199,0.675799889 C35.8969,0.208799889 36.6129,-0.0152001111 37.4679,0.000799888924 C38.2369,0.0177998889 38.9159,0.246799889 39.5039,0.688799889 C40.0919,1.12979989 40.3859,1.67279989 40.3859,2.31779989 L40.3859,5.52479989 L40.3859,18.5557999 C40.3859,19.2517999 40.1019,19.8457999 39.5359,20.3377999 C38.9689,20.8297999 38.2799,21.0757999 37.4679,21.0757999 C36.6129,21.0757999 35.8969,20.8637999 35.3199,20.4397999 C34.7429,20.0157999 34.4539,19.4637999 34.4539,18.7847999 L34.4219,18.7597999 Z" id="Fill-6"/>
            <path d="M50.0879,0.331799889 C50.2809,0.331799889 50.4619,0.348799889 50.6329,0.382799889 C52.0869,0.552799889 53.4069,0.951799889 54.5929,1.57879989 C55.7799,2.20679989 56.3619,3.09779989 56.3409,4.25179989 L56.2759,7.99279989 C56.2759,8.23079989 56.2609,8.43479989 56.2279,8.60379989 C56.1959,8.77379989 56.1479,8.93479989 56.0839,9.08779989 C56.0409,9.20679989 55.9879,9.32179989 55.9239,9.43079989 C55.8599,9.54179989 55.7949,9.66479989 55.7309,9.80079989 C55.6879,9.88579989 55.6239,9.96579989 55.5389,10.0417999 C55.4529,10.1187999 55.3669,10.1817999 55.2829,10.2327999 C55.2609,10.2667999 55.2339,10.2927999 55.2019,10.3097999 C55.1699,10.3267999 55.1429,10.3437999 55.1219,10.3607999 C55.0149,10.4277999 54.9299,10.4957999 54.8659,10.5637999 C54.8019,10.6317999 54.7689,10.7077999 54.7689,10.7927999 L54.7689,10.8567999 C54.7689,10.8817999 54.7799,10.9117999 54.8019,10.9457999 C54.8229,11.0307999 54.8659,11.0937999 54.9299,11.1367999 C54.9939,11.1787999 55.0689,11.2257999 55.1539,11.2767999 C55.1749,11.2767999 55.1969,11.2847999 55.2179,11.3017999 C55.2829,11.3367999 55.3359,11.3697999 55.3789,11.4037999 L55.5069,11.5057999 L55.5069,11.5057999 C55.5919,11.5907999 55.6719,11.6757999 55.7469,11.7607999 C55.8219,11.8447999 55.8909,11.9297999 55.9559,12.0147999 C56.1479,12.2857999 56.2919,12.5577999 56.3879,12.8287999 C56.4849,13.1007999 56.5329,13.4067999 56.5329,13.7447999 L56.5649,20.0577999 C56.5649,20.2617999 56.4899,20.4357999 56.3409,20.5787999 C56.1909,20.7237999 55.9979,20.8127999 55.7629,20.8467999 L55.6989,20.8467999 C55.4429,20.8467999 55.2129,20.7707999 55.0099,20.6167999 C54.8059,20.4647999 54.7049,20.2867999 54.7049,20.0827999 L54.7049,13.4137999 C54.7049,13.0587999 54.5929,12.7527999 54.3679,12.4977999 C54.1439,12.2437999 53.8399,12.0147999 53.4549,11.8107999 C53.3689,11.7607999 53.2889,11.7177999 53.2139,11.6837999 C53.1389,11.6497999 53.0589,11.6247999 52.9739,11.6077999 C52.8239,11.5397999 52.6639,11.4887999 52.4929,11.4547999 C52.3219,11.4207999 52.1289,11.4037999 51.9159,11.4037999 L49.8639,11.2767999 C49.6279,11.2937999 49.4089,11.3147999 49.2059,11.3407999 C49.0029,11.3657999 48.8159,11.4467999 48.6449,11.5817999 C48.4529,11.7177999 48.3459,11.8747999 48.3249,12.0527999 C48.3039,12.2307999 48.3039,12.4217999 48.3249,12.6247999 L48.3249,12.9307999 L48.3569,18.8107999 C48.3569,19.3537999 48.1329,19.8117999 47.6829,20.1847999 C47.2349,20.5587999 46.6789,20.7797999 46.0159,20.8467999 C45.9519,20.8637999 45.8879,20.8717999 45.8239,20.8717999 L45.5989,20.8717999 C44.8719,20.8717999 44.2209,20.6947999 43.6439,20.3377999 C43.0669,19.9817999 42.7779,19.5147999 42.7779,18.9377999 L42.7459,18.9117999 L42.7139,17.6647999 L42.6819,4.63379989 C42.7029,3.34479989 43.3919,2.31779989 44.7499,1.55379989 C46.1069,0.789799889 47.5979,0.382799889 49.2219,0.331799889 L50.0879,0.331799889 Z M51.4989,1.90979989 L51.1459,1.90979989 C50.2909,1.97779989 49.6069,2.26579989 49.0949,2.77579989 C48.5809,3.28479989 48.3249,3.87879989 48.3249,4.55679989 L48.3249,9.13879989 C48.3249,9.32479989 48.3349,9.48179989 48.3569,9.60979989 C48.3779,9.73679989 48.4529,9.85979989 48.5809,9.97879989 C48.7099,10.0797999 48.8539,10.1397999 49.0139,10.1567999 C49.1749,10.1737999 49.3509,10.1817999 49.5429,10.1817999 L49.7359,10.1817999 L52.3649,10.1057999 C52.7059,10.1227999 53.0059,10.0757999 53.2619,9.96579989 C53.5189,9.85579989 53.7539,9.70679989 53.9679,9.52079989 C54.1599,9.33379989 54.3149,9.14779989 54.4329,8.96079989 C54.5499,8.77379989 54.6089,8.55279989 54.6089,8.29879989 L54.6089,3.92079989 C54.6089,3.32679989 54.2879,2.84379989 53.6469,2.46979989 C53.0059,2.09679989 52.2889,1.90979989 51.4989,1.90979989 Z" id="Fill-8"/>
            <path d="M62.8817,18.7851999 L62.8497,16.4181999 L62.8497,3.38619989 L62.8497,3.32319989 L62.8497,3.23319989 C62.8497,3.03019989 62.8387,2.84319989 62.8177,2.67319989 C62.7967,2.50419989 62.6997,2.34319989 62.5287,2.19019989 C62.3577,2.03719989 62.1547,1.94019989 61.9197,1.89719989 C61.6847,1.85519989 61.4177,1.83319989 61.1177,1.83319989 L57.9447,1.78319989 C57.7307,1.80019989 57.5597,1.73219989 57.4307,1.57919989 C57.3027,1.42619989 57.2387,1.26519989 57.2387,1.09619989 C57.2597,0.926199889 57.3507,0.794199889 57.5107,0.701199889 C57.6717,0.608199889 57.8587,0.561199889 58.0717,0.561199889 L73.0777,0.485199889 C73.0987,0.502199889 73.1147,0.510199889 73.1257,0.510199889 L73.1737,0.510199889 C73.3867,0.527199889 73.5797,0.608199889 73.7507,0.752199889 C73.9217,0.896199889 74.0077,1.05319989 74.0077,1.22319989 C74.0077,1.39219989 73.9327,1.53319989 73.7827,1.64219989 C73.6327,1.75319989 73.4517,1.80819989 73.2377,1.80819989 L69.9997,1.80819989 C69.7217,1.82519989 69.4707,1.84619989 69.2457,1.87119989 C69.0217,1.89719989 68.8137,1.97819989 68.6207,2.11419989 C68.4067,2.26619989 68.2837,2.43119989 68.2527,2.61019989 C68.2197,2.78819989 68.2037,2.98819989 68.2037,3.20819989 L68.2037,3.25919989 L68.2037,3.31019989 L68.2357,5.70219989 L68.3327,18.7341999 C68.3327,19.3281999 68.0867,19.8411999 67.5947,20.2741999 C67.1027,20.7071999 66.4837,20.9311999 65.7357,20.9481999 C64.9657,20.9651999 64.2977,20.7621999 63.7317,20.3381999 C63.1647,19.9141999 62.8817,19.4041999 62.8817,18.8101999 L62.8817,18.7851999 Z" id="Fill-10"/>
            <path d="M79.8109,11.0981999 L75.3979,3.33519989 C75.3339,3.21719989 75.2849,3.08519989 75.2529,2.94119989 C75.2209,2.79719989 75.2049,2.66519989 75.2049,2.54619989 C75.2049,2.15619989 75.3179,1.79519989 75.5419,1.46419989 C75.7659,1.13419989 76.1029,0.884199889 76.5519,0.714199889 C76.7009,0.662199889 76.8509,0.616199889 77.0009,0.574199889 C77.1499,0.532199889 77.2999,0.502199889 77.4499,0.485199889 C77.5139,0.485199889 77.5889,0.480199889 77.6739,0.472199889 C77.7589,0.463199889 77.8339,0.459199889 77.8989,0.459199889 C78.3259,0.459199889 78.7159,0.527199889 79.0689,0.662199889 C79.4219,0.799199889 79.6719,1.01919989 79.8219,1.32519989 C79.8219,1.32519989 83.8189,7.35719989 84.0109,7.56019989 C84.2039,7.76419989 84.4379,7.87419989 84.7159,7.89119989 L84.7809,7.89119989 L84.8449,7.89119989 C84.8869,7.87419989 84.9189,7.86619989 84.9409,7.86619989 C85.1969,7.81519989 85.3999,7.71319989 85.5499,7.56019989 C85.6989,7.40819989 85.8169,7.22919989 85.9029,7.02619989 L89.0259,1.19719989 C89.0259,1.18119989 89.0309,1.15919989 89.0419,1.13419989 C89.0529,1.10819989 89.0679,1.07819989 89.0899,1.04419989 C89.1749,0.892199889 89.2929,0.744199889 89.4429,0.599199889 C89.5919,0.455199889 89.7629,0.383199889 89.9559,0.383199889 L90.0839,0.383199889 C90.1259,0.383199889 90.1589,0.391199889 90.1799,0.408199889 C90.3509,0.459199889 90.4849,0.548199889 90.5809,0.676199889 C90.6769,0.803199889 90.7249,0.943199889 90.7249,1.09619989 L90.7249,1.21019989 C90.7249,1.25219989 90.7139,1.29119989 90.6929,1.32519989 L86.1589,10.3861999 C86.1379,10.4711999 86.1109,10.5381999 86.0789,10.5891999 C86.0469,10.6401999 86.0199,10.6911999 85.9989,10.7421999 C85.9779,10.7591999 85.9609,10.7801999 85.9509,10.8061999 C85.9399,10.8311999 85.9239,10.8611999 85.9029,10.8941999 C85.8599,10.9801999 85.8169,11.0641999 85.7739,11.1491999 C85.7309,11.2341999 85.7099,11.3361999 85.7099,11.4541999 L85.7099,11.5951999 L85.7099,11.7091999 L85.7099,11.8491999 L85.7099,11.9891999 L85.6459,19.2431999 C85.6459,19.7861999 85.3899,20.2231999 84.8769,20.5541999 C84.3639,20.8851999 83.7649,21.0581999 83.0819,21.0761999 C82.3539,21.0931999 81.7029,20.9231999 81.1249,20.5661999 C80.5479,20.2101999 80.2599,19.7441999 80.2599,19.1671999 L80.3239,12.8291999 C80.3239,12.7441999 80.3179,12.6551999 80.3079,12.5621999 C80.2969,12.4691999 80.2809,12.3801999 80.2599,12.2941999 C80.2379,12.2271999 80.2169,12.1551999 80.1959,12.0781999 C80.1739,12.0021999 80.1519,11.9211999 80.1309,11.8361999 C80.1099,11.7691999 80.0879,11.7051999 80.0669,11.6451999 C80.0459,11.5861999 80.0139,11.5311999 79.9709,11.4801999 L79.9709,11.4421999 C79.9709,11.4331999 79.9599,11.4211999 79.9389,11.4041999 C79.9169,11.3701999 79.8959,11.3271999 79.8749,11.2761999 C79.8529,11.2251999 79.8319,11.1751999 79.8109,11.1241999 L79.8109,11.0981999 Z" id="Fill-12"/>
            <path d="M98.5671,19.8544999 L98.5351,15.4764999 L98.5351,2.44449989 C98.5351,1.90149989 98.7801,1.43549989 99.2721,1.04449989 C99.7641,0.654499889 100.3621,0.450499889 101.0671,0.433499889 C101.7091,0.417499889 102.2651,0.552499889 102.7351,0.840499889 C103.2051,1.12949989 103.5471,1.51149989 103.7611,1.98649989 L107.7371,10.3344999 C107.7581,10.4024999 107.7791,10.4664999 107.8011,10.5254999 C107.8221,10.5854999 107.8541,10.6404999 107.8971,10.6904999 C108.0461,11.0134999 108.2391,11.3104999 108.4741,11.5824999 C108.7091,11.8534999 109.0401,11.9894999 109.4681,11.9894999 C109.9171,11.9894999 110.2431,11.8454999 110.4461,11.5564999 C110.6491,11.2684999 110.8151,10.9454999 110.9431,10.5894999 C110.9431,10.5724999 110.9481,10.5604999 110.9591,10.5514999 C110.9701,10.5424999 110.9751,10.5304999 110.9751,10.5134999 C110.9961,10.4614999 111.0121,10.4154999 111.0231,10.3734999 C111.0341,10.3304999 111.0501,10.2924999 111.0711,10.2584999 L114.5341,2.06249989 C114.7691,1.58749989 115.1381,1.19749989 115.6401,0.892499889 C116.1421,0.586499889 116.7031,0.425499889 117.3231,0.408499889 C117.4301,0.408499889 117.5321,0.412499889 117.6281,0.420499889 C117.7241,0.429499889 117.8161,0.442499889 117.9001,0.458499889 C118.6491,0.578499889 119.2201,0.879499889 119.6161,1.36249989 C120.0111,1.84649989 120.2101,2.39349989 120.2101,3.00449989 L120.2731,5.57549989 L120.4331,18.6064999 C120.4331,19.2014999 120.1891,19.7184999 119.6961,20.1594999 C119.2041,20.6004999 118.5851,20.8304999 117.8371,20.8464999 C117.0461,20.8804999 116.3671,20.6564999 115.8001,20.1714999 C115.2341,19.6884999 114.9511,19.1324999 114.9511,18.5044999 L114.8231,11.7604999 L114.8231,11.7084999 C114.8231,11.3704999 114.7531,11.0604999 114.6141,10.7804999 C114.4751,10.5004999 114.1921,10.3264999 113.7651,10.2584999 L113.7161,10.2584999 C113.7061,10.2584999 113.6901,10.2504999 113.6691,10.2324999 L113.6201,10.2324999 L113.5721,10.2324999 C113.2521,10.2324999 112.9791,10.3434999 112.7551,10.5634999 C112.5301,10.7844999 112.3541,11.0304999 112.2261,11.3014999 C112.2041,11.3534999 112.1821,11.3994999 112.1611,11.4414999 C112.1401,11.4844999 112.1181,11.5314999 112.0971,11.5824999 L108.5701,19.8794999 L108.5221,19.9944999 C108.5111,20.0194999 108.5061,20.0484999 108.5061,20.0834999 C108.4421,20.2704999 108.3511,20.4434999 108.2341,20.6044999 C108.1161,20.7664999 107.9291,20.8464999 107.6721,20.8464999 C107.4161,20.8634999 107.2131,20.7954999 107.0641,20.6424999 C106.9141,20.4904999 106.7851,20.3124999 106.6791,20.1084999 C106.6791,20.0914999 106.6731,20.0704999 106.6631,20.0444999 C106.6511,20.0194999 106.6361,19.9904999 106.6141,19.9564999 L102.6071,11.6584999 C102.5211,11.4714999 102.3871,11.2934999 102.2061,11.1244999 C102.0241,10.9544999 101.8051,10.8604999 101.5481,10.8434999 L101.4521,10.8434999 C101.4311,10.8434999 101.4091,10.8484999 101.3881,10.8564999 C101.3671,10.8654999 101.3451,10.8694999 101.3241,10.8694999 C101.0891,10.9204999 100.9281,11.0304999 100.8431,11.2004999 C100.7571,11.3704999 100.7041,11.5484999 100.6831,11.7344999 L100.6831,11.7984999 L100.6831,11.8874999 L100.6831,19.9054999 C100.6831,20.1594999 100.5921,20.3794999 100.4101,20.5664999 C100.2291,20.7534999 99.9881,20.8554999 99.6891,20.8724999 C99.3471,20.8884999 99.0741,20.7954999 98.8711,20.5914999 C98.6681,20.3884999 98.5671,20.1514999 98.5671,19.8794999 L98.5671,19.8544999 Z" id="Fill-14"/>
            <path d="M122.69,18.7597999 L122.69,15.4247999 L122.69,2.39379989 C122.711,1.71579989 123.01,1.14279989 123.587,0.675799889 C124.165,0.208799889 124.881,-0.0152001111 125.736,0.000799888924 C126.505,0.0177998889 127.184,0.246799889 127.772,0.688799889 C128.36,1.12979989 128.654,1.67279989 128.654,2.31779989 L128.654,5.52479989 L128.654,18.5557999 C128.654,19.2517999 128.371,19.8457999 127.804,20.3377999 C127.238,20.8297999 126.548,21.0757999 125.736,21.0757999 C124.881,21.0757999 124.165,20.8637999 123.587,20.4397999 C123.01,20.0157999 122.722,19.4637999 122.722,18.7847999 L122.69,18.7597999 Z" id="Fill-16"/>
            <path d="M131.1106,18.3525999 L131.1106,15.2725999 L131.1106,2.24059989 C131.1106,1.69859989 131.3826,1.24459989 131.9276,0.879599889 C132.4726,0.514599889 133.0986,0.331599889 133.8036,0.331599889 C134.4876,0.331599889 135.1076,0.510599889 135.6636,0.866599889 C136.2186,1.22259989 136.4976,1.67259989 136.4976,2.21559989 L136.5296,4.02259989 L136.5606,17.0545999 C136.5606,17.4105999 136.6256,17.7205999 136.7536,17.9835999 C136.8816,18.2465999 137.0856,18.4975999 137.3626,18.7345999 C137.6626,18.9885999 137.9766,19.1755999 138.3086,19.2935999 C138.6396,19.4135999 139.0306,19.4725999 139.4786,19.4725999 L142.7166,19.4475999 C142.9736,19.4635999 143.1926,19.5485999 143.3746,19.7015999 C143.5556,19.8545999 143.6356,20.0325999 143.6156,20.2355999 C143.5936,20.4055999 143.4976,20.5495999 143.3266,20.6685999 C143.1556,20.7875999 142.9526,20.8465999 142.7166,20.8465999 L134.3486,20.8465999 C134.2626,20.8465999 134.0976,20.8305999 133.8516,20.7955999 C133.6056,20.7615999 133.3436,20.6945999 133.0666,20.5915999 C132.8746,20.5245999 132.6926,20.4485999 132.5216,20.3635999 C132.3496,20.2785999 132.2006,20.1845999 132.0726,20.0825999 C132.0506,20.0485999 132.0246,20.0235999 131.9926,20.0065999 C131.9606,19.9905999 131.9326,19.9645999 131.9126,19.9305999 C131.6556,19.7095999 131.4586,19.4765999 131.3186,19.2305999 C131.1796,18.9845999 131.1106,18.7005999 131.1106,18.3775999 L131.1106,18.3525999 Z" id="Fill-18"/>
            <path d="M145.1662,18.2763999 L145.1342,16.4183999 L145.1022,3.38639989 L145.1022,3.31039989 L145.1022,3.23339989 C145.1022,2.82639989 145.1282,2.44839989 145.1822,2.10139989 C145.2342,1.75339989 145.4432,1.43539989 145.8072,1.14639989 C146.1062,0.909399889 146.4272,0.739399889 146.7692,0.637399889 C147.1102,0.535399889 147.5062,0.484399889 147.9552,0.484399889 L156.5162,0.459399889 C156.5372,0.476399889 156.5642,0.484399889 156.5962,0.484399889 L156.6762,0.484399889 C156.8902,0.502399889 157.0882,0.561399889 157.2702,0.662399889 C157.4512,0.764399889 157.5422,0.901399889 157.5422,1.06939989 C157.5422,1.23939989 157.4562,1.39239989 157.2852,1.52839989 C157.1142,1.66439989 156.9112,1.73239989 156.6762,1.73239989 L152.3152,1.70639989 C152.0602,1.72339989 151.8292,1.74439989 151.6262,1.77039989 C151.4232,1.79539989 151.2362,1.88439989 151.0652,2.03739989 C150.9372,2.15639989 150.8672,2.27539989 150.8562,2.39339989 C150.8462,2.51239989 150.8522,2.64839989 150.8732,2.80039989 L150.8732,2.91539989 L150.8732,3.05539989 L150.9052,8.85839989 L150.9052,8.96039989 C150.9052,9.14739989 150.9152,9.31239989 150.9372,9.45639989 C150.9582,9.60139989 151.0552,9.72439989 151.2262,9.82539989 C151.3752,9.91039989 151.5242,9.96539989 151.6752,9.99139989 C151.8232,10.0163999 151.9952,10.0293999 152.1872,10.0293999 L156.5482,10.0043999 C156.5912,10.0213999 156.6282,10.0293999 156.6602,10.0293999 L156.7722,10.0293999 C157.0082,10.0463999 157.2272,10.0973999 157.4302,10.1823999 C157.6332,10.2673999 157.7452,10.4023999 157.7672,10.5893999 C157.7872,10.8103999 157.6912,10.9963999 157.4782,11.1493999 C157.2642,11.3013999 157.0182,11.3783999 156.7402,11.3783999 L152.6372,11.3533999 C152.5932,11.3703999 152.5562,11.3783999 152.5242,11.3783999 L152.4122,11.3783999 C152.1982,11.3783999 152.0002,11.3873999 151.8182,11.4033999 C151.6372,11.4213999 151.4612,11.4803999 151.2902,11.5823999 C151.0982,11.7003999 150.9852,11.8583999 150.9532,12.0523999 C150.9212,12.2483999 150.9052,12.4563999 150.9052,12.6753999 L150.9692,17.6143999 C150.9692,17.9033999 151.0332,18.1443999 151.1612,18.3393999 C151.2902,18.5353999 151.4712,18.7253999 151.7062,18.9123999 C151.7282,18.9293999 151.7552,18.9503999 151.7872,18.9753999 C151.8182,19.0013999 151.8462,19.0223999 151.8672,19.0393999 C151.9092,19.0743999 151.9522,19.1033999 151.9952,19.1293999 C152.0382,19.1543999 152.0802,19.1833999 152.1232,19.2173999 C152.2722,19.3193999 152.4232,19.4083999 152.5722,19.4853999 C152.7222,19.5613999 152.9032,19.5993999 153.1172,19.5993999 L158.8562,19.5743999 C159.1132,19.5903999 159.3482,19.6593999 159.5622,19.7773999 C159.7752,19.8963999 159.8832,20.0573999 159.8832,20.2613999 C159.8832,20.4483999 159.7862,20.5913999 159.5942,20.6943999 C159.4012,20.7963999 159.1982,20.8553999 158.9842,20.8723999 L158.9372,20.8723999 L158.8892,20.8723999 L148.0202,20.8723999 C147.6772,20.8723999 147.3722,20.8463999 147.1052,20.7963999 C146.8382,20.7453999 146.5872,20.6423999 146.3522,20.4903999 C146.3092,20.4733999 146.2712,20.4523999 146.2402,20.4263999 C146.2082,20.4013999 146.1702,20.3803999 146.1282,20.3633999 C145.7222,20.0753999 145.4592,19.7643999 145.3422,19.4333999 C145.2252,19.1033999 145.1662,18.7253999 145.1662,18.3013999 L145.1662,18.2763999 Z" id="Fill-20"/>
            <path d="M168.9172,0.866299889 C168.9172,0.697299889 169.0132,0.565299889 169.2052,0.472299889 C169.3972,0.379299889 169.6012,0.332299889 169.8142,0.332299889 L179.8822,0.306299889 C179.9252,0.324299889 179.9572,0.332299889 179.9792,0.332299889 L180.0742,0.332299889 C180.3312,0.332299889 180.5662,0.345299889 180.7802,0.370299889 C180.9932,0.395299889 181.1652,0.485299889 181.2932,0.637299889 C181.3352,0.688299889 181.3672,0.739299889 181.3892,0.790299889 C181.4102,0.841299889 181.4212,0.892299889 181.4212,0.943299889 C181.4212,1.04429989 181.3952,1.15129989 181.3412,1.26129989 C181.2872,1.37129989 181.2182,1.48629989 181.1332,1.60429989 C181.1112,1.65529989 181.0842,1.70629989 181.0532,1.75729989 C181.0212,1.80829989 180.9932,1.85929989 180.9732,1.91029989 L179.6892,4.65829989 L173.7902,17.6902999 C173.7692,17.7242999 173.7532,17.7542999 173.7422,17.7792999 C173.7312,17.8042999 173.7262,17.8352999 173.7262,17.8692999 C173.6622,18.0212999 173.5982,18.1742999 173.5332,18.3272999 C173.4702,18.4792999 173.4382,18.6242999 173.4382,18.7602999 L173.4382,18.8742999 C173.4382,18.9172999 173.4482,18.9552999 173.4702,18.9882999 C173.4902,19.0392999 173.5122,19.0872999 173.5332,19.1292999 C173.5552,19.1712999 173.5762,19.2092999 173.5982,19.2432999 C173.7692,19.4472999 173.9872,19.5832999 174.2552,19.6502999 C174.5222,19.7192999 174.8162,19.7522999 175.1372,19.7522999 L181.2932,19.7262999 C181.3352,19.7442999 181.3732,19.7522999 181.4052,19.7522999 L181.4852,19.7522999 C181.7422,19.7862999 181.9712,19.8582999 182.1752,19.9692999 C182.3782,20.0792999 182.4682,20.2272999 182.4472,20.4142999 C182.4262,20.6002999 182.3192,20.7322999 182.1272,20.8082999 C181.9352,20.8852999 181.7302,20.9312999 181.5182,20.9482999 L181.4692,20.9482999 L181.4212,20.9482999 L170.9692,20.9482999 C170.4352,20.9482999 169.9642,20.8722999 169.5582,20.7202999 C169.1512,20.5662999 168.8102,20.3122999 168.5322,19.9562999 C168.3822,19.7692999 168.2802,19.5872999 168.2282,19.4082999 C168.1742,19.2302999 168.1472,19.0562999 168.1472,18.8872999 C168.1472,18.7182999 168.1682,18.5432999 168.2112,18.3652999 C168.2542,18.1862999 168.3182,18.0052999 168.4032,17.8172999 L169.0452,16.3422999 L174.5602,3.31029989 C174.5812,3.27629989 174.5972,3.23829989 174.6072,3.19529989 C174.6182,3.15329989 174.6352,3.11529989 174.6562,3.08129989 C174.7202,2.94529989 174.7732,2.81329989 174.8162,2.68629989 C174.8582,2.55929989 174.8802,2.43629989 174.8802,2.31729989 C174.8802,2.19929989 174.8542,2.08829989 174.8002,1.98629989 C174.7462,1.88529989 174.6662,1.79129989 174.5602,1.70629989 C174.3892,1.57129989 174.1962,1.48629989 173.9822,1.45129989 C173.7692,1.41829989 173.5332,1.40129989 173.2772,1.40129989 L169.9422,1.37529989 C169.8992,1.39229989 169.8572,1.40129989 169.8142,1.40129989 C169.7712,1.40129989 169.7292,1.39229989 169.6872,1.37529989 C169.4942,1.35929989 169.3172,1.31229989 169.1572,1.23529989 C168.9972,1.15929989 168.9172,1.04429989 168.9172,0.892299889 L168.9172,0.866299889 Z" id="Fill-22"/>
            <path d="M190.1691,0.458799889 C191.7291,0.527799889 193.1611,0.904799889 194.4651,1.59179989 C195.7691,2.27979989 196.4211,3.24179989 196.4211,4.48079989 L196.3571,17.4617999 C196.3571,18.5307999 195.8011,19.3447999 194.6901,19.9057999 C193.5781,20.4647999 192.3591,20.7957999 191.0341,20.8977999 C190.9911,20.9137999 190.9541,20.9227999 190.9221,20.9227999 L190.8421,20.9227999 C190.6931,20.9397999 190.5371,20.9517999 190.3771,20.9607999 C190.2171,20.9697999 190.0511,20.9737999 189.8801,20.9737999 C189.6021,20.9737999 189.3241,20.9647999 189.0461,20.9477999 C188.7691,20.9317999 188.4901,20.9067999 188.2131,20.8717999 C186.8871,20.7027999 185.6851,20.3247999 184.6061,19.7397999 C183.5261,19.1547999 182.9861,18.3357999 182.9861,17.2827999 L182.9541,17.2577999 L182.8911,4.83679989 C182.9121,3.51379989 183.5801,2.46179989 184.8951,1.68079989 C186.2091,0.900799889 187.7421,0.492799889 189.4951,0.458799889 L190.1691,0.458799889 Z M191.4841,1.98679989 C190.5851,2.02079989 189.9011,2.33879989 189.4311,2.94079989 C188.9611,3.54379989 188.6931,4.20079989 188.6301,4.91379989 L188.6301,5.21879989 L188.5011,16.8247999 C188.5011,17.6227999 188.8811,18.2887999 189.6401,18.8227999 C190.3991,19.3577999 191.2701,19.5907999 192.2531,19.5237999 C192.9801,19.4727999 193.5671,19.1797999 194.0161,18.6457999 C194.4651,18.1107999 194.7101,17.5217999 194.7541,16.8757999 L194.7541,5.04079989 C194.7101,4.26079989 194.4011,3.54779989 193.8231,2.90279989 C193.2461,2.25779989 192.4661,1.95279989 191.4841,1.98679989 Z" id="Fill-24"/>
            <path d="M198.8567,19.9560999 L198.8247,15.5270999 L198.8247,2.49609989 C198.8457,1.90209989 199.1507,1.39309989 199.7387,0.968099889 C200.3267,0.544099889 201.0047,0.349099889 201.7747,0.383099889 C202.3517,0.400099889 202.8537,0.519099889 203.2817,0.739099889 C203.7097,0.960099889 204.0187,1.28209989 204.2107,1.70609989 L207.9307,9.34209989 C208.0377,9.59709989 208.2087,9.82209989 208.4437,10.0170999 C208.6787,10.2120999 208.9567,10.3100999 209.2777,10.3100999 L209.4057,10.3100999 C209.4487,10.3100999 209.4907,10.3010999 209.5337,10.2840999 C209.8337,10.2330999 210.0307,10.0970999 210.1277,9.87609989 C210.2227,9.65609989 210.2817,9.42709989 210.3027,9.18909989 L210.3027,9.01109989 L210.3027,8.85809989 L210.3027,1.52809989 L210.3027,1.45209989 L210.3027,1.35009989 C210.3247,1.13009989 210.3777,0.922099889 210.4627,0.727099889 C210.5487,0.532099889 210.7307,0.417099889 211.0087,0.383099889 L211.0567,0.383099889 L211.1047,0.383099889 C211.3617,0.366099889 211.5747,0.451099889 211.7467,0.637099889 C211.9177,0.824099889 212.0237,1.02809989 212.0667,1.24809989 C212.0877,1.29909989 212.0987,1.34609989 212.0987,1.38809989 L212.0987,1.50309989 L212.0987,5.29509989 L212.0987,18.3270999 C212.0987,18.9550999 211.8747,19.4980999 211.4247,19.9560999 C210.9767,20.4140999 210.3677,20.6850999 209.5977,20.7700999 L209.5177,20.7700999 L209.4377,20.7700999 C209.3947,20.7870999 209.3627,20.7960999 209.3407,20.7960999 L209.2457,20.7960999 C208.5177,20.7960999 207.9037,20.5790999 207.4017,20.1460999 C206.8987,19.7140999 206.5197,19.2090999 206.2627,18.6320999 L203.3137,12.1930999 C203.2927,12.1760999 203.2757,12.1510999 203.2657,12.1170999 C203.2537,12.0820999 203.2387,12.0490999 203.2167,12.0150999 C203.0887,11.7440999 202.9227,11.5010999 202.7197,11.2890999 C202.5167,11.0770999 202.2447,10.9800999 201.9027,10.9970999 C201.5607,11.0140999 201.2827,11.1320999 201.0697,11.3530999 C200.8557,11.5740999 200.7487,11.8280999 200.7487,12.1170999 L200.7487,19.8800999 C200.7487,20.1170999 200.7007,20.3380999 200.6047,20.5410999 C200.5077,20.7450999 200.3097,20.8550999 200.0107,20.8720999 L199.9467,20.8720999 C199.9247,20.8720999 199.9097,20.8760999 199.8987,20.8850999 C199.8877,20.8930999 199.8727,20.8970999 199.8507,20.8970999 C199.5937,20.8970999 199.3697,20.8120999 199.1767,20.6430999 C198.9847,20.4740999 198.8887,20.2780999 198.8887,20.0580999 L198.8887,20.0190999 L198.8887,19.9810999 L198.8567,19.9560999 Z" id="Fill-26"/>
            <path d="M214.1828,18.2763999 L214.1508,16.4183999 L214.1188,3.38639989 L214.1188,3.31039989 L214.1188,3.23339989 C214.1188,2.82639989 214.1448,2.44839989 214.1988,2.10139989 C214.2508,1.75339989 214.4598,1.43539989 214.8238,1.14639989 C215.1228,0.909399889 215.4438,0.739399889 215.7858,0.637399889 C216.1268,0.535399889 216.5228,0.484399889 216.9718,0.484399889 L225.5328,0.459399889 C225.5538,0.476399889 225.5808,0.484399889 225.6128,0.484399889 L225.6928,0.484399889 C225.9068,0.502399889 226.1048,0.561399889 226.2868,0.662399889 C226.4678,0.764399889 226.5588,0.901399889 226.5588,1.06939989 C226.5588,1.23939989 226.4728,1.39239989 226.3018,1.52839989 C226.1308,1.66439989 225.9278,1.73239989 225.6928,1.73239989 L221.3318,1.70639989 C221.0768,1.72339989 220.8458,1.74439989 220.6428,1.77039989 C220.4398,1.79539989 220.2528,1.88439989 220.0818,2.03739989 C219.9538,2.15639989 219.8838,2.27539989 219.8728,2.39339989 C219.8628,2.51239989 219.8688,2.64839989 219.8898,2.80039989 L219.8898,2.91539989 L219.8898,3.05539989 L219.9218,8.85839989 L219.9218,8.96039989 C219.9218,9.14739989 219.9318,9.31239989 219.9538,9.45639989 C219.9748,9.60139989 220.0718,9.72439989 220.2428,9.82539989 C220.3918,9.91039989 220.5408,9.96539989 220.6918,9.99139989 C220.8398,10.0163999 221.0118,10.0293999 221.2038,10.0293999 L225.5648,10.0043999 C225.6078,10.0213999 225.6448,10.0293999 225.6768,10.0293999 L225.7888,10.0293999 C226.0248,10.0463999 226.2438,10.0973999 226.4468,10.1823999 C226.6498,10.2673999 226.7618,10.4023999 226.7838,10.5893999 C226.8038,10.8103999 226.7078,10.9963999 226.4948,11.1493999 C226.2808,11.3013999 226.0348,11.3783999 225.7568,11.3783999 L221.6538,11.3533999 C221.6098,11.3703999 221.5728,11.3783999 221.5408,11.3783999 L221.4288,11.3783999 C221.2148,11.3783999 221.0168,11.3873999 220.8348,11.4033999 C220.6538,11.4213999 220.4778,11.4803999 220.3068,11.5823999 C220.1148,11.7003999 220.0018,11.8583999 219.9698,12.0523999 C219.9378,12.2483999 219.9218,12.4563999 219.9218,12.6753999 L219.9858,17.6143999 C219.9858,17.9033999 220.0498,18.1443999 220.1778,18.3393999 C220.3068,18.5353999 220.4878,18.7253999 220.7228,18.9123999 C220.7448,18.9293999 220.7718,18.9503999 220.8038,18.9753999 C220.8348,19.0013999 220.8628,19.0223999 220.8838,19.0393999 C220.9258,19.0743999 220.9688,19.1033999 221.0118,19.1293999 C221.0548,19.1543999 221.0968,19.1833999 221.1398,19.2173999 C221.2888,19.3193999 221.4398,19.4083999 221.5888,19.4853999 C221.7388,19.5613999 221.9198,19.5993999 222.1338,19.5993999 L227.8728,19.5743999 C228.1298,19.5903999 228.3648,19.6593999 228.5788,19.7773999 C228.7918,19.8963999 228.8998,20.0573999 228.8998,20.2613999 C228.8998,20.4483999 228.8028,20.5913999 228.6108,20.6943999 C228.4178,20.7963999 228.2148,20.8553999 228.0008,20.8723999 L227.9538,20.8723999 L227.9058,20.8723999 L217.0368,20.8723999 C216.6938,20.8723999 216.3888,20.8463999 216.1218,20.7963999 C215.8548,20.7453999 215.6038,20.6423999 215.3688,20.4903999 C215.3258,20.4733999 215.2878,20.4523999 215.2568,20.4263999 C215.2248,20.4013999 215.1868,20.3803999 215.1448,20.3633999 C214.7388,20.0753999 214.4758,19.7643999 214.3588,19.4333999 C214.2418,19.1033999 214.1828,18.7253999 214.1828,18.3013999 L214.1828,18.2763999 Z" id="Fill-28"/>
        </g>
    </g>
</svg>
